Coordinates
version=1
nRows=20
nColumns=38
inDegrees=no

Units are S.I. units (second, meters, Newtons, ...)
If the header above contains a line with 'inDegrees', this indicates whether rotational values are in degrees (yes) or radians (no).

endheader
time	pelvis_tilt	pelvis_list	pelvis_rotation	pelvis_tx	pelvis_ty	pelvis_tz	hip_flexion_r	hip_adduction_r	hip_rotation_r	knee_angle_r	ankle_angle_r	subtalar_angle_r	mtp_angle_r	hip_flexion_l	hip_adduction_l	hip_rotation_l	knee_angle_l	ankle_angle_l	subtalar_angle_l	mtp_angle_l	lumbar_extension	lumbar_bending	lumbar_rotation	arm_flex_r	arm_add_r	arm_rot_r	elbow_flex_r	pro_sup_r	wrist_flex_r	wrist_dev_r	arm_flex_l	arm_add_l	arm_rot_l	elbow_flex_l	pro_sup_l	wrist_flex_l	wrist_dev_l
8.06251	-0.10279	-0.0200769	-3.1564	-0.229815	0.963465	0.0282524	0.340363	-0.0498907	-0.0871462	0.169285	0.0538271	0	0	-0.232466	0.0696696	-0.060512	0.206118	0.30311	0	0	-0.343975	0.0649818	-0.249136	0.209504	-0.287593	1.5708	0.324083	0.0835208	0	0	0.570293	-0.485595	1.30437	0.631881	0.308822	0	0
8.0725	-0.103496	-0.0194283	-3.15433	-0.229466	0.96255	0.0272746	0.340304	-0.0481087	-0.0866588	0.170855	0.0517216	0	0	-0.239829	0.0666178	-0.0585132	0.211025	0.309223	0	0	-0.343951	0.0674303	-0.24983	0.21157	-0.287399	1.5708	0.32349	0.0874778	0	0	0.566518	-0.481115	1.31267	0.627546	0.311038	0	0
8.08249	-0.104402	-0.0188743	-3.15162	-0.229265	0.961658	0.0262324	0.340135	-0.0468241	-0.0882007	0.176324	0.0484193	0	0	-0.247203	0.0632797	-0.0560635	0.21655	0.315014	0	0	-0.34379	0.069807	-0.251098	0.213883	-0.286895	1.5708	0.322886	0.0913313	0	0	0.561792	-0.476577	1.32164	0.622775	0.312982	0	0
8.09248	-0.105477	-0.0183595	-3.14829	-0.229218	0.960798	0.025124	0.339759	-0.0459049	-0.0914175	0.185053	0.0436898	0	0	-0.254531	0.0595842	-0.0532028	0.222744	0.320433	0	0	-0.343445	0.0721602	-0.252887	0.216389	-0.286107	1.5708	0.322305	0.0949462	0	0	0.556111	-0.471935	1.3313	0.617514	0.31449	0	0
8.10247	-0.106704	-0.017823	-3.14436	-0.229331	0.959979	0.0239485	0.33906	-0.0452124	-0.095894	0.196326	0.0374229	0	0	-0.261752	0.0554615	-0.0499847	0.229666	0.325399	0	0	-0.342884	0.0745459	-0.255121	0.219042	-0.285072	1.5708	0.321787	0.0982053	0	0	0.549477	-0.467137	1.34171	0.611711	0.315364	0	0
8.11246	-0.108078	-0.0172041	-3.13985	-0.229607	0.959211	0.0227056	0.337922	-0.0446145	-0.101232	0.209421	0.0296663	0	0	-0.268812	0.0508498	-0.046476	0.237387	0.329802	0	0	-0.342104	0.0770224	-0.257709	0.221809	-0.283837	1.5708	0.321383	0.101012	0	0	0.541908	-0.462127	1.35286	0.605333	0.315376	0	0
8.12245	-0.109602	-0.0164502	-3.13482	-0.230046	0.958507	0.0213954	0.336248	-0.0440032	-0.107123	0.223686	0.0206345	0	0	-0.275647	0.0457016	-0.0427536	0.246002	0.333508	0	0	-0.34112	0.07964	-0.260544	0.22467	-0.282458	1.5708	0.321145	0.103302	0	0	0.533436	-0.456853	1.36478	0.598353	0.314274	0	0
8.13244	-0.111279	-0.0155258	-3.12934	-0.230644	0.957874	0.0200187	0.333977	-0.043303	-0.113355	0.2386	0.010679	0	0	-0.282178	0.0399923	-0.0389073	0.255626	0.336361	0	0	-0.339958	0.0824288	-0.263506	0.227608	-0.280987	1.5708	0.321124	0.10504	0	0	0.524107	-0.451267	1.37751	0.590771	0.311785	0	0
8.14243	-0.113106	-0.0144148	-3.12348	-0.231396	0.957322	0.0185756	0.331103	-0.0424707	-0.119803	0.253798	0.000262517	0	0	-0.288296	0.033722	-0.0350469	0.266399	0.338175	0	0	-0.338648	0.0853947	-0.26646	0.230617	-0.279476	1.5708	0.321363	0.106222	0	0	0.513983	-0.445332	1.39105	0.58261	0.307624	0	0
8.15242	-0.115069	-0.0131169	-3.11735	-0.232288	0.956856	0.0170663	0.327667	-0.0414858	-0.126413	0.269077	-0.0100444	0	0	-0.293862	0.0269106	-0.0313067	0.278486	0.338738	0	0	-0.337221	0.088521	-0.269259	0.233699	-0.277972	1.5708	0.321892	0.106877	0	0	0.503134	-0.439021	1.40539	0.57392	0.301511	0	0
8.16241	-0.117137	-0.0116445	-3.11105	-0.233305	0.956481	0.0154904	0.323759	-0.0403373	-0.13315	0.28436	-0.0195773	0	0	-0.298698	0.019593	-0.027847	0.292074	0.337808	0	0	-0.3357	0.091772	-0.271742	0.236865	-0.276514	1.5708	0.322726	0.107064	0	0	0.491641	-0.432322	1.42052	0.564778	0.29319	0	0
8.1724	-0.119262	-0.0100156	-3.10473	-0.234424	0.956199	0.0138468	0.319488	-0.0390077	-0.139955	0.299638	-0.0276367	0	0	-0.302591	0.0118086	-0.0248477	0.307368	0.33512	0	0	-0.334104	0.0950997	-0.273749	0.240141	-0.275129	1.5708	0.323857	0.106875	0	0	0.479591	-0.42524	1.43634	0.555277	0.282457	0	0
8.1824	-0.12139	-0.00824897	-3.09849	-0.23562	0.956014	0.0121335	0.314952	-0.0374596	-0.146714	0.3149	-0.0335868	0	0	-0.305303	0.00359451	-0.0224965	0.324591	0.33038	0	0	-0.332444	0.0984516	-0.275118	0.24356	-0.273834	1.5708	0.32526	0.106428	0	0	0.467076	-0.417793	1.45275	0.545518	0.269181	0	0
8.19239	-0.123465	-0.00636248	-3.09248	-0.236863	0.955926	0.010348	0.310213	-0.0356314	-0.15325	0.330075	-0.0369519	0	0	-0.306591	-0.00501533	-0.020975	0.343965	0.32327	0	0	-0.330741	0.101774	-0.275705	0.247174	-0.272634	1.5708	0.326903	0.105857	0	0	0.454174	-0.410023	1.46955	0.53562	0.253351	0	0
8.20238	-0.125441	-0.00437314	-3.08683	-0.238124	0.955938	0.00848767	0.305286	-0.0334448	-0.159357	0.345009	-0.0374942	0	0	-0.306225	-0.0139917	-0.0204384	0.365694	0.313464	0	0	-0.329023	0.105014	-0.27539	0.251051	-0.271521	1.5708	0.328754	0.105292	0	0	0.440945	-0.402007	1.48642	0.525731	0.235129	0	0
8.21237	-0.127287	-0.00229922	-3.08162	-0.23937	0.956052	0.00655116	0.300128	-0.0308264	-0.164854	0.359457	-0.0352335	0	0	-0.304	-0.0233108	-0.0209917	0.389955	0.300656	0	0	-0.327329	0.108127	-0.274108	0.255269	-0.270477	1.5708	0.330782	0.104858	0	0	0.427416	-0.393853	1.50289	0.516016	0.214867	0	0
8.22236	-0.128988	-0.000164067	-3.07693	-0.240575	0.956267	0.00454002	0.29465	-0.0277302	-0.16964	0.373112	-0.030412	0	0	-0.299747	-0.0329497	-0.0226711	0.416878	0.28459	0	0	-0.325703	0.111071	-0.271858	0.259918	-0.269476	1.5708	0.332956	0.104678	0	0	0.41359	-0.385696	1.51841	0.506657	0.193117	0	0
8.23235	-0.13054	0.00199992	-3.07276	-0.241712	0.956583	0.00245956	0.288747	-0.0241538	-0.173709	0.385656	-0.0234268	0	0	-0.293332	-0.0428771	-0.0254252	0.446542	0.265105	0	0	-0.324183	0.113807	-0.268708	0.265087	-0.268487	1.5708	0.335255	0.104877	0	0	0.399457	-0.377687	1.53244	0.497827	0.170531	0	0
8.24234	-0.13195	0.00415232	-3.06908	-0.242756	0.956994	0.000319166	0.282312	-0.0201375	-0.177136	0.396798	-0.014756	0	0	-0.284661	-0.053049	-0.029111	0.478959	0.242174	0	0	-0.322804	0.116304	-0.264792	0.270868	-0.267479	1.5708	0.337663	0.105564	0	0	0.384997	-0.369984	1.54446	0.489685	0.147879	0	0
8.25233	-0.133232	0.00625362	-3.06581	-0.243686	0.957496	-0.00186748	0.275247	-0.0157497	-0.18006	0.4063	-0.00489359	0	0	-0.27369	-0.063411	-0.0335021	0.514071	0.215939	0	0	-0.321595	0.118545	-0.260278	0.277341	-0.266426	1.5708	0.340178	0.106814	0	0	0.37023	-0.362704	1.55423	0.482317	0.125767	0	0
